#!OML:ASF G:\JayActor3\Patient Classification 1\Patient 1\Session 5\male.ASF
:FULLY-SPECIFIED
:DEGREES
924
root -33.5245 17.9522 -4.8351 160.266 92.9515 159.512
lowerback 1.5385 -0.845219 0.754628
upperback 0.25058 -1.11786 -1.00269
thorax -0.640069 -0.559985 -1.42614
lowerneck -5.76733 0.740343 1.71697
upperneck 15.2935 0.782048 1.47707
head 5.5614 0.660215 0.236732
rclavicle -3.5657e-015 -8.34896e-015
rhumerus -38.3743 -8.27259 -83.9474
rradius 24.3409
rwrist 3.58614
rhand -21.1725 -9.46566
rfingers 7.12502
rthumb 5.20779 -39.3817
lclavicle -3.5657e-015 -8.34896e-015
lhumerus -37.7134 15.7664 74.8605
lradius 16.4765
lwrist 9.63994
lhand -17.669 11.9782
lfingers 7.12502
lthumb 8.5898 41.7835
rfemur -10.5184 6.14765 22.9407
rtibia 56.7136
rfoot 10.6326 -5.85851
rtoes 2.72694
lfemur -2.19516 10.4241 -20.5907
ltibia 21.0288
lfoot 11.9001 -14.0618
ltoes -18.4302
925
root -33.5888 17.9593 -4.83864 159.823 92.935 159.027
lowerback 1.39693 -0.836836 0.771952
upperback 0.180387 -1.10755 -0.999468
thorax -0.632553 -0.555371 -1.43433
lowerneck -5.71625 0.730307 1.72692
upperneck 15.2757 0.764778 1.50895
head 5.547 0.654569 0.243633
rclavicle -6.83322e-015 -2.78299e-015
rhumerus -38.4292 -8.35899 -83.8531
rradius 24.2582
rwrist 3.6735
rhand -21.1864 -9.44079
rfingers 7.12502
rthumb 5.19438 -39.3571
lclavicle -6.83322e-015 -2.78299e-015
lhumerus -37.8311 15.6038 74.9103
lradius 16.6019
lwrist 9.89928
lhand -17.6775 11.9711
lfingers 7.12502
lthumb 8.58161 41.7767
rfemur -9.57055 6.27535 23.132
rtibia 56.4684
rfoot 11.9928 -6.4951
rtoes 3.8035
lfemur -2.43773 10.5272 -20.5789
ltibia 20.9293
lfoot 12.0874 -14.3255
ltoes -18.6014
926
root -33.6536 17.9666 -4.84198 159.346 92.914 158.517
lowerback 1.28478 -0.830749 0.796108
upperback 0.10837 -1.10009 -1.00109
thorax -0.64369 -0.552289 -1.45076
lowerneck -5.66961 0.718877 1.74102
upperneck 15.2613 0.74533 1.53886
head 5.53449 0.64801 0.249136
rclavicle 8.85834e-015 1.07344e-014
rhumerus -38.492 -8.43817 -83.774
rradius 24.1982
rwrist 3.75694
rhand -21.2013 -9.42727
rfingers 7.12502
rthumb 5.18 -39.344
lclavicle 8.85834e-015 1.07344e-014
lhumerus -37.9395 15.4621 74.9407
lradius 16.6992
lwrist 10.1368
lhand -17.6814 11.943
lfingers 7.12502
lthumb 8.57783 41.7488
rfemur -8.61288 6.37104 23.3199
rtibia 56.1185
rfoot 13.3195 -7.31924
rtoes 4.88237
lfemur -2.66271 10.6276 -20.5688
ltibia 20.817
lfoot 12.2993 -14.5566
ltoes -18.643
927
root -33.7194 17.974 -4.84508 158.762 92.89 157.906
lowerback 1.1889 -0.825907 0.826436
upperback 0.0393906 -1.0941 -1.00289
thorax -0.660993 -0.549971 -1.47058
lowerneck -5.62343 0.706608 1.75259
upperneck 15.2419 0.724837 1.56962
head 5.52049 0.640722 0.255233
rclavicle -6.36111e-015 3.18055e-015
rhumerus -38.5502 -8.51625 -83.7023
rradius 24.1554
rwrist 3.84697
rhand -21.2188 -9.42535
rfingers 7.12502
rthumb 5.16307 -39.3425
lclavicle -6.36111e-015 3.18055e-015
lhumerus -38.0274 15.3654 74.9475
lradius 16.7608
lwrist 10.329
lhand -17.683 11.9079
lfingers 7.12502
lthumb 8.5763 41.7137
rfemur -7.65519 6.44041 23.5087
rtibia 55.6639
rfoot 14.5624 -8.32868
rtoes 5.98439
lfemur -2.88443 10.7151 -20.5578
ltibia 20.7002
lfoot 12.541 -14.7409
ltoes -18.5085
928
root -33.7862 17.9817 -4.84797 158.264 92.8675 157.386
lowerback 1.11201 -0.822393 0.855717
upperback -0.0249366 -1.08978 -1.0064
thorax -0.684234 -0.548483 -1.49127
lowerneck -5.59233 0.696417 1.75819
upperneck 15.2245 0.707085 1.60105
head 5.50967 0.634433 0.262786
rclavicle -2.34814e-015 7.95139e-015
rhumerus -38.5964 -8.59063 -83.6397
rradius 24.1244
rwrist 3.94515
rhand -21.2347 -9.41496
rfingers 7.12502
rthumb 5.14773 -39.3324
lclavicle -2.34814e-015 7.95139e-015
lhumerus -38.0954 15.3234 74.9271
lradius 16.7908
lwrist 10.4675
lhand -17.6722 11.8582
lfingers 7.12502
lthumb 8.58668 41.6636
rfemur -6.69791 6.49146 23.6887
rtibia 55.1019
rfoot 15.7034 -9.48392
rtoes 6.59875
lfemur -3.1046 10.7785 -20.554
ltibia 20.5904
lfoot 12.7545 -14.8754
ltoes -18.2774
929
root -33.8537 17.9898 -4.85068 157.776 92.8528 156.882
lowerback 1.04432 -0.814981 0.892726
upperback -0.0822158 -1.08008 -1.01269
thorax -0.705425 -0.544288 -1.51916
lowerneck -5.55869 0.682922 1.75973
upperneck 15.2002 0.685147 1.63372
head 5.49622 0.625792 0.271079
rclavicle -4.99446e-015 -5.1684e-015
rhumerus -38.6304 -8.67125 -83.586
rradius 24.103
rwrist 4.0342
rhand -21.2538 -9.41451
rfingers 7.12502
rthumb 5.12932 -39.3324
lclavicle -4.99446e-015 -5.1684e-015
lhumerus -38.1424 15.3164 74.8867
lradius 16.7966
lwrist 10.5529
lhand -17.6558 11.8152
lfingers 7.12502
lthumb 8.60247 41.62
rfemur -5.73722 6.53021 23.8652
rtibia 54.4271
rfoot 16.7282 -10.7122
rtoes 6.87357
lfemur -3.31984 10.8163 -20.5495
ltibia 20.495
lfoot 12.9396 -14.9402
ltoes -17.9147
930
root -33.9219 17.999 -4.85328 157.325 92.8441 156.415
lowerback 0.981193 -0.806174 0.932887
upperback -0.135704 -1.06845 -1.01867
thorax -0.725274 -0.539119 -1.5485
lowerneck -5.52215 0.67077 1.75619
upperneck 15.1708 0.665901 1.66477
head 5.48068 0.617928 0.279835
rclavicle 9.63484e-015 5.1684e-015
rhumerus -38.6569 -8.74056 -83.5425
rradius 24.0933
rwrist 4.11058
rhand -21.2699 -9.41243
rfingers 7.12502
rthumb 5.11373 -39.3307
lclavicle 9.63484e-015 5.1684e-015
lhumerus -38.175 15.342 74.834
lradius 16.7858
lwrist 10.5884
lhand -17.6402 11.7899
lfingers 7.12502
lthumb 8.61757 41.594
rfemur -4.78299 6.55362 24.0323
rtibia 53.6364
rfoot 17.6713 -11.9382
rtoes 6.84463
lfemur -3.54224 10.8271 -20.5458
ltibia 20.4202
lfoot 13.0795 -14.9852
ltoes -17.5868
931
root -33.9908 18.0082 -4.85574 156.853 92.8417 155.926
lowerback 0.902219 -0.794242 0.974624
upperback -0.174788 -1.05267 -1.02103
thorax -0.72129 -0.531644 -1.57544
lowerneck -5.48726 0.656651 1.74886
upperneck 15.1342 0.645092 1.68978
head 5.46321 0.608461 0.2872
rclavicle 4.3919e-015 -5.96354e-015
rhumerus -38.655 -8.8087 -83.5049
rradius 24.0874
rwrist 4.17029
rhand -21.2806 -9.40546
rfingers 7.12502
rthumb 5.10339 -39.324
lclavicle 4.3919e-015 -5.96354e-015
lhumerus -38.177 15.3985 74.7804
lradius 16.7587
lwrist 10.5683
lhand -17.6319 11.7627
lfingers 7.12502
lthumb 8.62556 41.5665
rfemur -3.83967 6.56054 24.1921
rtibia 52.73
rfoot 18.5509 -13.0769
rtoes 6.65464
lfemur -3.78064 10.8263 -20.539
ltibia 20.3682
lfoot 13.1958 -15.032
ltoes -17.3371
932
root -34.0606 18.0167 -4.85816 156.307 92.8443 155.361
lowerback 0.827401 -0.779564 1.02866
upperback -0.215765 -1.03312 -1.02475
thorax -0.72166 -0.522392 -1.61063
lowerneck -5.44756 0.64087 1.74763
upperneck 15.1057 0.622837 1.70707
head 5.44747 0.598303 0.291093
rclavicle -3.69615e-015 9.54166e-015
rhumerus -38.6588 -8.86078 -83.4826
rradius 24.0998
rwrist 4.19492
rhand -21.2863 -9.3962
rfingers 7.12502
rthumb 5.09788 -39.3149
lclavicle -3.69615e-015 9.54166e-015
lhumerus -38.1716 15.4526 74.7286
lradius 16.7247
lwrist 10.5173
lhand -17.6417 11.75
lfingers 7.12502
lthumb 8.61611 41.5542
rfemur -2.90981 6.54783 24.3443
rtibia 51.7106
rfoot 19.3851 -14.0547
rtoes 6.59486
lfemur -4.03181 10.8166 -20.5261
ltibia 20.3325
lfoot 13.3068 -15.0679
ltoes -17.0607
933
root -34.1311 18.0242 -4.86074 155.817 92.8507 154.853
lowerback 0.744974 -0.763945 1.08421
upperback -0.24683 -1.01238 -1.02632
thorax -0.707523 -0.512386 -1.64464
lowerneck -5.42325 0.62496 1.74625
upperneck 15.0896 0.601406 1.71368
head 5.43827 0.588013 0.291859
rclavicle 6.39838e-016 -2.78299e-015
rhumerus -38.6481 -8.87718 -83.4808
rradius 24.1337
rwrist 4.17339
rhand -21.2876 -9.40433
rfingers 7.12502
rthumb 5.0967 -39.323
lclavicle 6.39838e-016 -2.78299e-015
lhumerus -38.1475 15.5169 74.6897
lradius 16.69
lwrist 10.4387
lhand -17.6729 11.7339
lfingers 7.12502
lthumb 8.58603 41.5393
rfemur -1.9906 6.51691 24.4808
rtibia 50.5825
rfoot 20.1138 -14.8365
rtoes 6.78297
lfemur -4.29254 10.8071 -20.5133
ltibia 20.3053
lfoot 13.4282 -15.1075
ltoes -16.7765
934
root -34.2023 18.0303 -4.86359 155.34 92.87 154.359
lowerback 0.66021 -0.744925 1.15091
upperback -0.271164 -0.987081 -1.02676
thorax -0.685143 -0.500048 -1.68387
lowerneck -5.41324 0.610996 1.7452
upperneck 15.0864 0.582657 1.71641
head 5.43556 0.579031 0.291657
rclavicle 8.75274e-015 4.37326e-015
rhumerus -38.6298 -8.85968 -83.4999
rradius 24.1882
rwrist 4.10524
rhand -21.2888 -9.41863
rfingers 7.12502
rthumb 5.09551 -39.3374
lclavicle 8.75274e-015 4.37326e-015
lhumerus -38.1103 15.5783 74.6655
lradius 16.6611
lwrist 10.3507
lhand -17.7118 11.7184
lfingers 7.12502
lthumb 8.54844 41.5254
rfemur -1.08384 6.47662 24.61
rtibia 49.3529
rfoot 20.7156 -15.5382
rtoes 7.46484
lfemur -4.56451 10.8231 -20.4962
ltibia 20.2814
lfoot 13.5729 -15.1713
ltoes -16.5381
